<?xml version="1.0" encoding="utf-8"?>
<!-- Generator: Adobe Illustrator 27.2.0, SVG Export Plug-In . SVG Version: 6.00 Build 0)  -->
<svg version="1.1" id="Слой_1" xmlns="http://www.w3.org/2000/svg" xmlns:xlink="http://www.w3.org/1999/xlink" x="0px" y="0px"
	 viewBox="0 0 300 300" style="enable-background:new 0 0 300 300;" xml:space="preserve">
<style type="text/css">
	.st0{fill:#BFCFD9;stroke:#1D1D1B;stroke-width:13;stroke-linecap:round;stroke-linejoin:round;stroke-miterlimit:10;}
	.st1{fill:#008CFA;stroke:#1D1D1B;stroke-miterlimit:10;}
	.st2{fill:#0064BE;}
	.st3{fill:#0063BE;}
	.st4{opacity:0.5;fill:#0063BE;}
	.st5{fill:#FFFFFF;}
	.st6{fill:#BFCFD9;}
	.st7{fill:none;stroke:#1D1D1B;stroke-width:13;stroke-linecap:round;stroke-linejoin:round;stroke-miterlimit:10;}
	.st8{fill:#F94200;}
	.st9{fill:#008CFA;}
	.st10{fill:none;stroke:#000000;stroke-width:13;stroke-linecap:round;stroke-linejoin:round;stroke-miterlimit:10;}
	.st11{fill:none;stroke:#E6332A;stroke-width:13;stroke-linecap:round;stroke-linejoin:round;stroke-miterlimit:10;}
	.st12{fill:none;stroke:#1D1D1B;stroke-width:13;stroke-miterlimit:10;}
	.st13{fill:#BFCFD9;stroke:#1D1D1B;stroke-width:13;stroke-miterlimit:10;}
	.st14{fill:#F94200;stroke:#1D1D1B;stroke-width:13;stroke-miterlimit:10;}
	.st15{fill:#DEF4FF;stroke:#1D1D1B;stroke-width:13;stroke-miterlimit:10;}
	.st16{fill:#DEF4FF;stroke:#1D1D1B;stroke-width:13;stroke-linecap:round;stroke-miterlimit:10;}
	.st17{fill:#1D1D1B;}
	.st18{fill:#E6332A;}
	.st19{fill:#DEF4FF;}
</style>
<g>
	<path d="M87.5,0H50C22.39,0,0,22.39,0,50v37.5c0,27.61,22.39,50,50,50h37.5c27.61,0,50-22.39,50-50V50C137.5,22.39,115.11,0,87.5,0
		z M112.5,87.5c0,13.81-11.19,25-25,25H50c-13.81,0-25-11.19-25-25V50c0-13.81,11.19-25,25-25h37.5c13.81,0,25,11.19,25,25V87.5z"/>
	<path d="M250,0h-37.5c-27.61,0-50,22.39-50,50v37.5c0,27.61,22.39,50,50,50H250c27.61,0,50-22.39,50-50V50
		C300,22.39,277.61,0,250,0z M275,87.5c0,13.81-11.19,25-25,25h-37.5c-13.81,0-25-11.19-25-25V50c0-13.81,11.19-25,25-25H250
		c13.81,0,25,11.19,25,25V87.5z"/>
	<path d="M87.5,162.5H50c-27.61,0-50,22.39-50,50V250c0,27.61,22.39,50,50,50h37.5c27.61,0,50-22.39,50-50v-37.5
		C137.5,184.89,115.11,162.5,87.5,162.5z M112.5,250c0,13.81-11.19,25-25,25H50c-13.81,0-25-11.19-25-25v-37.5
		c0-13.81,11.19-25,25-25h37.5c13.81,0,25,11.19,25,25V250z"/>
	<path d="M250,162.5h-37.5c-27.61,0-50,22.39-50,50V250c0,27.61,22.39,50,50,50H250c27.61,0,50-22.39,50-50v-37.5
		C300,184.89,277.61,162.5,250,162.5z M275,250c0,13.81-11.19,25-25,25h-37.5c-13.81,0-25-11.19-25-25v-37.5c0-13.81,11.19-25,25-25
		H250c13.81,0,25,11.19,25,25V250z"/>
</g>
</svg>
